# xmcd
#
# Track frame offsets: 
#        150
#        21344
#        37181
#        57084
#        69072
#        80905
#        96881
#        118432
#        137146
#        164808
#
# Disc length: 2515 seconds
#
# Revision: 2
# Processed by: cddbd v1.5.2PL0 Copyright (c) Steve Scherf et al.
# Submitted via: ExactAudioCopy v0.99pb5
#
DISCID=9409d10a
DTITLE=Miltiades Paschalides - Kakes synh8eies
DYEAR=1998
DGENRE=Rock
TTITLE0=Kakes synh8eies
TTITLE1=Paramy8ia ths Okas
TTITLE2=San twn matiwn sou tis vafes
TTITLE3=Penelope
TTITLE4=Akoma s' agapw
TTITLE5=Hrakleio-Kalamata
TTITLE6=Fwtia mou
TTITLE7=Dwmatio me ka8reftes
TTITLE8=Afhghsh
TTITLE9=Nanourisma
EXTD=
EXTT0=
EXTT1=
EXTT2=
EXTT3=
EXTT4=
EXTT5=
EXTT6=
EXTT7=
EXTT8=
EXTT9=
PLAYORDER=
